<svg viewBox="0 0 140 180" xmlns="http://www.w3.org/2000/svg" width="140" height="180">
  <defs>
    <linearGradient id="leatherGrad" x1="0%" y1="0%" x2="100%" y2="100%">
      <stop offset="0%" stop-color="#1e0c0a"/>
      <stop offset="40%" stop-color="#130608"/>
      <stop offset="100%" stop-color="#1c0a0c"/>
    </linearGradient>
    <linearGradient id="goldGrad" x1="0%" y1="0%" x2="0%" y2="100%">
      <stop offset="0%" stop-color="#f2c84a"/>
      <stop offset="50%" stop-color="#dbb25e"/>
      <stop offset="100%" stop-color="#8a5f20"/>
    </linearGradient>
    <linearGradient id="spineGrad" x1="0%" y1="0%" x2="100%" y2="0%">
      <stop offset="0%" stop-color="#080305"/>
      <stop offset="100%" stop-color="#120608"/>
    </linearGradient>
    <radialGradient id="cloverGlowRad" cx="50%" cy="50%" r="50%">
      <stop offset="0%" stop-color="#ff1a3a" stop-opacity="0.6"/>
      <stop offset="70%" stop-color="#cc0a22" stop-opacity="0.2"/>
      <stop offset="100%" stop-color="#880012" stop-opacity="0"/>
    </radialGradient>
    <filter id="redGlow" x="-40%" y="-40%" width="180%" height="180%">
      <feGaussianBlur stdDeviation="3.5" result="blur"/>
      <feColorMatrix in="blur" type="matrix"
        values="1 0 0 0 0.9   0 0 0 0 0   0 0 0 0 0.15   0 0 0 1 0"
        result="redBlur"/>
      <feMerge>
        <feMergeNode in="redBlur"/>
        <feMergeNode in="SourceGraphic"/>
      </feMerge>
    </filter>
    <filter id="goldGlow" x="-20%" y="-20%" width="140%" height="140%">
      <feGaussianBlur stdDeviation="1.5" result="blur"/>
      <feMerge>
        <feMergeNode in="blur"/>
        <feMergeNode in="SourceGraphic"/>
      </feMerge>
    </filter>
    <pattern id="leatherPores" patternUnits="userSpaceOnUse" width="6" height="6">
      <rect width="6" height="6" fill="transparent"/>
      <circle cx="1.5" cy="1.5" r="0.7" fill="rgba(0,0,0,0.2)"/>
      <circle cx="4.5" cy="4.5" r="0.5" fill="rgba(255,255,255,0.02)"/>
      <circle cx="4.5" cy="1.5" r="0.4" fill="rgba(0,0,0,0.1)"/>
    </pattern>
  </defs>

  <!-- Drop shadow -->
  <rect x="12" y="14" width="120" height="160" rx="7" fill="rgba(0,0,0,0.55)"/>

  <!-- Book body -->
  <rect x="7" y="6" width="120" height="160" rx="7" fill="url(#leatherGrad)"/>
  <rect x="7" y="6" width="120" height="160" rx="7" fill="url(#leatherPores)"/>

  <!-- Spine -->
  <rect x="7" y="6" width="18" height="160" rx="6 0 0 6" fill="url(#spineGrad)"/>
  <line x1="24" y1="6" x2="24" y2="166" stroke="#220a0a" stroke-width="1.5"/>
  <line x1="26" y1="6" x2="26" y2="166" stroke="#3a1212" stroke-width="0.5" opacity="0.5"/>
  <!-- Spine stitching -->
  <line x1="11" y1="25" x2="11" y2="150" stroke="#2e0c0c" stroke-width="1" stroke-dasharray="5 7" opacity="0.7"/>

  <!-- Gold outer border -->
  <rect x="7" y="6" width="120" height="160" rx="7" fill="none" stroke="url(#goldGrad)" stroke-width="2.5"/>

  <!-- Gold inner border -->
  <rect x="14" y="14" width="106" height="144" rx="4" fill="none" stroke="url(#goldGrad)" stroke-width="1" opacity="0.55"/>

  <!-- === Corner ornaments === -->
  <!-- TL -->
  <path d="M14,14 L14,30 L20,30 L20,20 L32,20 L32,14 Z" fill="url(#goldGrad)" opacity="0.9"/>
  <path d="M14,14 L14,28 L17,28 L17,22 L26,22 L26,14 Z" fill="url(#spineGrad)"/>
  <!-- TR -->
  <path d="M120,14 L108,14 L108,20 L118,20 L118,30 L120,30 Z" fill="url(#goldGrad)" opacity="0.9"/>
  <path d="M120,14 L111,14 L111,22 L118,22 L118,28 L120,28 Z" fill="url(#spineGrad)"/>
  <!-- BL -->
  <path d="M14,158 L14,142 L20,142 L20,152 L32,152 L32,158 Z" fill="url(#goldGrad)" opacity="0.9"/>
  <path d="M14,158 L14,144 L17,144 L17,154 L26,154 L26,158 Z" fill="url(#spineGrad)"/>
  <!-- BR -->
  <path d="M120,158 L108,158 L108,152 L118,152 L118,142 L120,142 Z" fill="url(#goldGrad)" opacity="0.9"/>
  <path d="M120,158 L111,158 L111,154 L118,154 L118,144 L120,144 Z" fill="url(#spineGrad)"/>

  <!-- Top decorative band -->
  <line x1="26" y1="33" x2="114" y2="33" stroke="url(#goldGrad)" stroke-width="0.8" opacity="0.65"/>
  <line x1="30" y1="37" x2="110" y2="37" stroke="url(#goldGrad)" stroke-width="0.4" opacity="0.35"/>
  <!-- Small top diamond -->
  <path d="M70,26 L74,30 L70,34 L66,30 Z" fill="url(#goldGrad)" opacity="0.75"/>

  <!-- === FIVE LEAF CLOVER (centered at 70, 88) === -->

  <!-- Pulsing red glow base (animates) -->
  <g transform="translate(70, 88)">
    <circle cx="0" cy="0" r="36" fill="url(#cloverGlowRad)">
      <animate attributeName="r" values="30;40;30" dur="2.4s" repeatCount="indefinite"/>
      <animate attributeName="opacity" values="0.6;1;0.6" dur="2.4s" repeatCount="indefinite"/>
    </circle>
  </g>

  <!-- Clover glow layer -->
  <g transform="translate(70, 88)" filter="url(#redGlow)" opacity="0.35">
    <ellipse cx="0" cy="-20" rx="11" ry="16" fill="#ff1a3a"/>
    <ellipse cx="0" cy="-20" rx="11" ry="16" fill="#ff1a3a" transform="rotate(72)"/>
    <ellipse cx="0" cy="-20" rx="11" ry="16" fill="#ff1a3a" transform="rotate(144)"/>
    <ellipse cx="0" cy="-20" rx="11" ry="16" fill="#ff1a3a" transform="rotate(216)"/>
    <ellipse cx="0" cy="-20" rx="11" ry="16" fill="#ff1a3a" transform="rotate(288)"/>
    <circle cx="0" cy="0" r="7" fill="#ff1a3a"/>
  </g>

  <!-- Clover leaves — solid near-black -->
  <g transform="translate(70, 88)">
    <!-- Animate subtle rotation -->
    <animateTransform attributeName="transform" type="rotate" from="0 0 0" to="360 0 0"
      dur="60s" repeatCount="indefinite" additive="sum"/>
    <ellipse cx="0" cy="-20" rx="10.5" ry="15" fill="#060108"/>
    <ellipse cx="0" cy="-20" rx="10.5" ry="15" fill="#060108" transform="rotate(72)"/>
    <ellipse cx="0" cy="-20" rx="10.5" ry="15" fill="#060108" transform="rotate(144)"/>
    <ellipse cx="0" cy="-20" rx="10.5" ry="15" fill="#060108" transform="rotate(216)"/>
    <ellipse cx="0" cy="-20" rx="10.5" ry="15" fill="#060108" transform="rotate(288)"/>
    <!-- Midrib veins -->
    <line x1="0" y1="-2" x2="0" y2="-33" stroke="#2a0810" stroke-width="0.9"/>
    <line x1="0" y1="-2" x2="0" y2="-33" stroke="#2a0810" stroke-width="0.9" transform="rotate(72)"/>
    <line x1="0" y1="-2" x2="0" y2="-33" stroke="#2a0810" stroke-width="0.9" transform="rotate(144)"/>
    <line x1="0" y1="-2" x2="0" y2="-33" stroke="#2a0810" stroke-width="0.9" transform="rotate(216)"/>
    <line x1="0" y1="-2" x2="0" y2="-33" stroke="#2a0810" stroke-width="0.9" transform="rotate(288)"/>
    <!-- Gold leaf outlines (subtle) -->
    <ellipse cx="0" cy="-20" rx="10.5" ry="15" fill="none" stroke="#dbb25e" stroke-width="0.6" opacity="0.28"/>
    <ellipse cx="0" cy="-20" rx="10.5" ry="15" fill="none" stroke="#dbb25e" stroke-width="0.6" opacity="0.28" transform="rotate(72)"/>
    <ellipse cx="0" cy="-20" rx="10.5" ry="15" fill="none" stroke="#dbb25e" stroke-width="0.6" opacity="0.28" transform="rotate(144)"/>
    <ellipse cx="0" cy="-20" rx="10.5" ry="15" fill="none" stroke="#dbb25e" stroke-width="0.6" opacity="0.28" transform="rotate(216)"/>
    <ellipse cx="0" cy="-20" rx="10.5" ry="15" fill="none" stroke="#dbb25e" stroke-width="0.6" opacity="0.28" transform="rotate(288)"/>
    <!-- Center -->
    <circle cx="0" cy="0" r="6" fill="#040105"/>
    <circle cx="0" cy="0" r="6" fill="none" stroke="#dbb25e" stroke-width="0.6" opacity="0.4"/>
    <circle cx="0" cy="0" r="2.5" fill="#dbb25e" opacity="0.35"/>
  </g>

  <!-- Bottom decorative lines -->
  <line x1="28" y1="122" x2="112" y2="122" stroke="url(#goldGrad)" stroke-width="0.7" opacity="0.5"/>
  <line x1="32" y1="127" x2="108" y2="127" stroke="url(#goldGrad)" stroke-width="0.4" opacity="0.3"/>
  <line x1="28" y1="132" x2="112" y2="132" stroke="url(#goldGrad)" stroke-width="0.7" opacity="0.5"/>
  <line x1="32" y1="137" x2="108" y2="137" stroke="url(#goldGrad)" stroke-width="0.4" opacity="0.3"/>
  <line x1="28" y1="142" x2="112" y2="142" stroke="url(#goldGrad)" stroke-width="0.7" opacity="0.5"/>
  <!-- Bottom diamond -->
  <path d="M70,116 L74,120 L70,124 L66,120 Z" fill="url(#goldGrad)" opacity="0.7"/>

  <!-- Cover sheen (top-left highlight) -->
  <ellipse cx="55" cy="50" rx="38" ry="28" fill="none"
    stroke="rgba(255,255,255,0.04)" stroke-width="12" opacity="0.5"
    clip-path="url(#bookClip)"/>
</svg>
